<svg width="816" height="816" viewBox="0 0 680 680" xmlns="http://www.w3.org/2000/svg" font-family="ui-sans-serif, system-ui, 'PingFang SC', 'Microsoft YaHei', sans-serif">
<rect x="0" y="0" width="680" height="680" fill="#F6F6FB"/>
<rect x="0" y="0" width="10" height="680" fill="#4F46E5"/>
<rect x="40" y="42" width="96" height="30" rx="15" fill="#E0E7FF"/>
<text x="88" y="62" text-anchor="middle" fill="#4338CA" style="font-size:13px;font-weight:500">功能 1 / 4</text>
<text x="40" y="116" style="font-size:36px;font-weight:800" fill="#1F2937">96 位美国导师 · 一键筛</text>
<text x="40" y="152" style="font-size:17px" fill="#6B7280">CS / EE / 物理 / 生物 / 数学，按方向 · 学校 · 层次筛选</text>
<text x="40" y="178" style="font-size:17px" fill="#6B7280">每位附简介 · 邮箱 · 学生口碑，套磁有的放矢</text>
<rect x="40" y="206" width="600" height="410" rx="16" fill="#FFFFFF" stroke="#E6E6EE"/>
<rect x="64" y="234" width="54" height="28" rx="14" fill="#4F46E5"/><text x="91" y="253" text-anchor="middle" fill="#FFFFFF" style="font-size:13px">全部</text>
<rect x="126" y="234" width="52" height="28" rx="14" fill="#EEF0FF"/><text x="152" y="253" text-anchor="middle" fill="#3730A3" style="font-size:13px">CS</text>
<rect x="186" y="234" width="52" height="28" rx="14" fill="#EEF0FF"/><text x="212" y="253" text-anchor="middle" fill="#3730A3" style="font-size:13px">ML</text>
<rect x="246" y="234" width="60" height="28" rx="14" fill="#EEF0FF"/><text x="276" y="253" text-anchor="middle" fill="#3730A3" style="font-size:13px">物理</text>
<circle cx="92" cy="312" r="22" fill="#6366F1"/><text x="92" y="317" text-anchor="middle" fill="#FFFFFF" style="font-size:14px">PL</text>
<text x="126" y="306" style="font-size:18px;font-weight:500" fill="#1F2937">Percy Liang</text>
<text x="126" y="329" style="font-size:14px" fill="#6B7280">Stanford · CS · NLP</text>
<circle cx="488" cy="312" r="5" fill="#10B981"/><text x="502" y="317" style="font-size:14px" fill="#047857">可能招生</text>
<line x1="64" y1="356" x2="616" y2="356" stroke="#EFEFF5"/>
<circle cx="92" cy="400" r="22" fill="#1D9E75"/><text x="92" y="405" text-anchor="middle" fill="#FFFFFF" style="font-size:14px">CF</text>
<text x="126" y="394" style="font-size:18px;font-weight:500" fill="#1F2937">Chelsea Finn</text>
<text x="126" y="417" style="font-size:14px" fill="#6B7280">Stanford · CS · 机器人</text>
<circle cx="488" cy="400" r="5" fill="#10B981"/><text x="502" y="405" style="font-size:14px" fill="#047857">可能招生</text>
<line x1="64" y1="444" x2="616" y2="444" stroke="#EFEFF5"/>
<circle cx="92" cy="488" r="22" fill="#BA7517"/><text x="92" y="493" text-anchor="middle" fill="#FFFFFF" style="font-size:14px">JL</text>
<text x="126" y="482" style="font-size:18px;font-weight:500" fill="#1F2937">Jure Leskovec</text>
<text x="126" y="505" style="font-size:14px" fill="#6B7280">Stanford · CS · 图学习</text>
<circle cx="488" cy="488" r="5" fill="#F59E0B"/><text x="502" y="493" style="font-size:14px" fill="#92400E">状态未知</text>
<line x1="64" y1="532" x2="616" y2="532" stroke="#EFEFF5"/>
<circle cx="92" cy="576" r="22" fill="#DB2777"/><text x="92" y="581" text-anchor="middle" fill="#FFFFFF" style="font-size:14px">TM</text>
<text x="126" y="570" style="font-size:18px;font-weight:500" fill="#1F2937">Tengyu Ma</text>
<text x="126" y="593" style="font-size:14px" fill="#6B7280">Stanford · CS · 理论</text>
<circle cx="488" cy="576" r="5" fill="#10B981"/><text x="502" y="581" style="font-size:14px" fill="#047857">可能招生</text>
<text x="340" y="652" text-anchor="middle" fill="#9295A3" style="font-size:13px">美国博士申请导航 · 闲鱼搜「美国博士申请」</text>
</svg>