<svg width="816" height="816" viewBox="0 0 680 680" xmlns="http://www.w3.org/2000/svg" font-family="ui-sans-serif, system-ui, 'PingFang SC', 'Microsoft YaHei', sans-serif">
<rect x="0" y="0" width="680" height="680" fill="#F6F6FB"/>
<rect x="0" y="0" width="10" height="680" fill="#4F46E5"/>
<rect x="40" y="42" width="96" height="30" rx="15" fill="#E0E7FF"/>
<text x="88" y="62" text-anchor="middle" fill="#4338CA" style="font-size:13px;font-weight:500">功能 2 / 4</text>
<text x="40" y="116" style="font-size:36px;font-weight:800" fill="#1F2937">套磁进度 · 自动记牢</text>
<text x="40" y="152" style="font-size:17px" fill="#6B7280">联系二三十位导师也不乱——已发 / 已回复 / 约面试</text>
<text x="40" y="178" style="font-size:17px" fill="#6B7280">在导师卡上标一下，进度自动保存，一眼看全局</text>
<rect x="40" y="206" width="600" height="410" rx="16" fill="#FFFFFF" stroke="#E6E6EE"/>
<rect x="64" y="232" width="170" height="66" rx="10" fill="#F3F4FF"/><text x="149" y="272" text-anchor="middle" fill="#6366F1" style="font-size:28px;font-weight:800">6</text><text x="149" y="292" text-anchor="middle" fill="#6B7280" style="font-size:13px">已发</text>
<rect x="248" y="232" width="170" height="66" rx="10" fill="#F3F4FF"/><text x="333" y="272" text-anchor="middle" fill="#10B981" style="font-size:28px;font-weight:800">3</text><text x="333" y="292" text-anchor="middle" fill="#6B7280" style="font-size:13px">已回复</text>
<rect x="432" y="232" width="170" height="66" rx="10" fill="#F3F4FF"/><text x="517" y="272" text-anchor="middle" fill="#8B5CF6" style="font-size:28px;font-weight:800">1</text><text x="517" y="292" text-anchor="middle" fill="#6B7280" style="font-size:13px">约面试</text>
<rect x="64" y="320" width="331" height="12" rx="6" fill="#6366F1"/>
<rect x="397" y="320" width="165" height="12" rx="6" fill="#10B981"/>
<rect x="564" y="320" width="38" height="12" rx="6" fill="#8B5CF6"/>
<circle cx="88" cy="374" r="18" fill="#6366F1"/><text x="88" y="379" text-anchor="middle" fill="#FFFFFF" style="font-size:13px">PL</text>
<text x="118" y="369" style="font-size:16px;font-weight:500" fill="#1F2937">Percy Liang · Stanford</text>
<text x="118" y="389" style="font-size:13px" fill="#9295A3">3 天前发出套磁，待回复</text>
<rect x="486" y="360" width="116" height="28" rx="14" fill="#EEF0FF"/><text x="544" y="379" text-anchor="middle" fill="#3730A3" style="font-size:13px">已发 · 待回复</text>
<line x1="64" y1="408" x2="602" y2="408" stroke="#EFEFF5"/>
<circle cx="88" cy="450" r="18" fill="#1D9E75"/><text x="88" y="455" text-anchor="middle" fill="#FFFFFF" style="font-size:13px">CF</text>
<text x="118" y="445" style="font-size:16px;font-weight:500" fill="#1F2937">Chelsea Finn · Stanford</text>
<text x="118" y="465" style="font-size:13px" fill="#9295A3">已回复，正在约 meeting</text>
<rect x="514" y="436" width="88" height="28" rx="14" fill="#ECFDF5"/><text x="558" y="455" text-anchor="middle" fill="#047857" style="font-size:13px">已回复</text>
<line x1="64" y1="484" x2="602" y2="484" stroke="#EFEFF5"/>
<circle cx="88" cy="526" r="18" fill="#8B5CF6"/><text x="88" y="531" text-anchor="middle" fill="#FFFFFF" style="font-size:13px">GN</text>
<text x="118" y="521" style="font-size:16px;font-weight:500" fill="#1F2937">Graham Neubig · CMU</text>
<text x="118" y="541" style="font-size:13px" fill="#9295A3">下周三 Zoom 面试</text>
<rect x="514" y="512" width="88" height="28" rx="14" fill="#F3EEFE"/><text x="558" y="531" text-anchor="middle" fill="#6D28D9" style="font-size:13px">约面试</text>
<text x="340" y="652" text-anchor="middle" fill="#9295A3" style="font-size:13px">美国博士申请导航 · 闲鱼搜「美国博士申请」</text>
</svg>