<svg width="816" height="816" viewBox="0 0 680 680" xmlns="http://www.w3.org/2000/svg" font-family="ui-sans-serif, system-ui, 'PingFang SC', 'Microsoft YaHei', sans-serif">
<rect x="0" y="0" width="680" height="680" fill="#F6F6FB"/>
<rect x="0" y="0" width="10" height="680" fill="#4F46E5"/>
<rect x="40" y="42" width="96" height="30" rx="15" fill="#E0E7FF"/>
<text x="88" y="62" text-anchor="middle" fill="#4338CA" style="font-size:13px;font-weight:500">功能 4 / 4</text>
<text x="40" y="116" style="font-size:36px;font-weight:800" fill="#1F2937">落地生活 · 提前摸清</text>
<text x="40" y="152" style="font-size:17px" fill="#6B7280">每座大学城的气候 · 安全 · 租房 · 华人社区，附地图</text>
<text x="40" y="178" style="font-size:17px" fill="#6B7280">到了不抓瞎，租房社交心里有底</text>
<rect x="40" y="206" width="600" height="410" rx="16" fill="#FFFFFF" stroke="#E6E6EE"/>
<text x="64" y="250" style="font-size:20px;font-weight:700" fill="#1F2937">波士顿 / 剑桥</text>
<text x="64" y="273" style="font-size:14px" fill="#6B7280">MIT · Harvard</text>
<rect x="64" y="290" width="128" height="80" rx="10" fill="#F3F4FF"/><text x="128" y="328" text-anchor="middle" fill="#4F46E5" style="font-size:17px;font-weight:700">$2,000+</text><text x="128" y="352" text-anchor="middle" fill="#6B7280" style="font-size:12px">月租参考</text>
<rect x="204" y="290" width="128" height="80" rx="10" fill="#F3F4FF"/><text x="268" y="328" text-anchor="middle" fill="#F59E0B" style="font-size:18px">★★★★</text><text x="268" y="352" text-anchor="middle" fill="#6B7280" style="font-size:12px">安全评级</text>
<rect x="344" y="290" width="128" height="80" rx="10" fill="#F3F4FF"/><text x="408" y="328" text-anchor="middle" fill="#4F46E5" style="font-size:18px;font-weight:700">严寒</text><text x="408" y="352" text-anchor="middle" fill="#6B7280" style="font-size:12px">气候特点</text>
<rect x="484" y="290" width="128" height="80" rx="10" fill="#F3F4FF"/><text x="548" y="328" text-anchor="middle" fill="#4F46E5" style="font-size:18px;font-weight:700">极多</text><text x="548" y="352" text-anchor="middle" fill="#6B7280" style="font-size:12px">华人社区</text>
<text x="64" y="412" style="font-size:14px;font-weight:500" fill="#1F2937">租房建议</text>
<text x="64" y="434" style="font-size:13px" fill="#6B7280">提前 4–6 个月找室友合租，Cambridgeport / Central Sq 性价比高</text>
<text x="64" y="472" style="font-size:14px;font-weight:500" fill="#1F2937">华人社区</text>
<text x="64" y="494" style="font-size:13px" fill="#6B7280">唐人街东北部最大之一，两校 CSSA 活跃，新生融入快</text>
<text x="64" y="532" style="font-size:14px;font-weight:500" fill="#1F2937">气候提醒</text>
<text x="64" y="554" style="font-size:13px" fill="#6B7280">11–3 月冬季漫长，提前备厚羽绒服与雪地靴</text>
<text x="340" y="652" text-anchor="middle" fill="#9295A3" style="font-size:13px">美国博士申请导航 · 闲鱼搜「美国博士申请」</text>
</svg>